HIERARCHY
ROOT Hips
{
	OFFSET -3.958830 18.904000 13.208200
	CHANNELS 6 Xposition Yposition Zposition Zrotation Yrotation Xrotation 
	JOINT LHipJoint
	{
		OFFSET 0.000000 0.000000 0.000000
		CHANNELS 3 Zrotation Yrotation Xrotation
		JOINT LeftUpLeg
		{
			OFFSET 1.800000 -1.400000 0.085000
			CHANNELS 3 Zrotation Yrotation Xrotation
			JOINT LeftLeg
			{
				OFFSET 2.215000 -6.000000 0.000000
				CHANNELS 3 Zrotation Yrotation Xrotation
				JOINT LeftFoot
				{
					OFFSET 2.500000 -6.900000 0.000000
					CHANNELS 3 Zrotation Yrotation Xrotation
					JOINT LeftToeBase
					{
						OFFSET 0.200000 -0.500000 1.950000
						CHANNELS 3 Zrotation Yrotation Xrotation
						End Site
						{
							OFFSET 0.000000 0.000000 0.000000
						}
					}
				}
			}
		}
	}
	JOINT RHipJoint
	{
		OFFSET 0.000000 0.000000 0.000000
		CHANNELS 3 Zrotation Yrotation Xrotation
		JOINT RightUpLeg
		{
			OFFSET -1.800000 -1.400000 0.085000
			CHANNELS 3 Zrotation Yrotation Xrotation
			JOINT RightLeg
			{
				OFFSET -2.215000 -6.000000 0.000000
				CHANNELS 3 Zrotation Yrotation Xrotation
				JOINT RightFoot
				{
					OFFSET -2.500000 -6.900000 0.000000
					CHANNELS 3 Zrotation Yrotation Xrotation
					JOINT RightToeBase
					{
						OFFSET -0.200000 -0.500000 1.950000
						CHANNELS 3 Zrotation Yrotation Xrotation
						End Site
						{
							OFFSET 0.000000 0.000000 0.000000
						}
					}
				}
			}
		}
	}
	JOINT LowerBack
	{
		OFFSET 0.000000 0.000000 0.000000
		CHANNELS 3 Zrotation Yrotation Xrotation
		JOINT Spine
		{
			OFFSET -0.087000 1.940000 -0.288900
			CHANNELS 3 Zrotation Yrotation Xrotation
			JOINT Spine1
			{
				OFFSET 0.000000 1.950000 0.060000
				CHANNELS 3 Zrotation Yrotation Xrotation
				JOINT Neck
				{
					OFFSET 0.000000 0.000000 0.000000
					CHANNELS 3 Zrotation Yrotation Xrotation
					JOINT Neck1
					{
						OFFSET 0.000000 1.600000 0.340000
						CHANNELS 3 Zrotation Yrotation Xrotation
						JOINT Head
						{
							OFFSET 0.000000 1.667000 -0.240000
							CHANNELS 3 Zrotation Yrotation Xrotation
							End Site
							{
								OFFSET 0.000000 0.000000 0.000000
							}
						}
					}
				}
				JOINT LeftShoulder
				{
					OFFSET 0.000000 0.000000 0.000000
					CHANNELS 3 Zrotation Yrotation Xrotation
					JOINT LeftArm
					{
						OFFSET 2.700000 1.550000 -0.730000
						CHANNELS 3 Zrotation Yrotation Xrotation
						JOINT LeftForeArm
						{
							OFFSET 5.450000 0.000000 0.000000
							CHANNELS 3 Zrotation Yrotation Xrotation
							JOINT LeftHand
							{
								OFFSET 3.450000 0.000000 0.000000
								CHANNELS 3 Zrotation Yrotation Xrotation
								JOINT LeftHandIndex1
								{
									OFFSET 0.750000 0.000000 0.000000
									CHANNELS 3 Zrotation Yrotation Xrotation
									End Site
									{
										OFFSET 0.000000 0.000000 0.000000
									}
								}
							}
						}
					}
				}
				JOINT RightShoulder
				{
					OFFSET 0.000000 0.000000 0.000000
					CHANNELS 3 Zrotation Yrotation Xrotation
					JOINT RightArm
					{
						OFFSET -2.700000 1.550000 -0.730000
						CHANNELS 3 Zrotation Yrotation Xrotation
						JOINT RightForeArm
						{
							OFFSET -5.450000 0.000000 0.000000
							CHANNELS 3 Zrotation Yrotation Xrotation
							JOINT RightHand
							{
								OFFSET -3.450000 0.000000 0.000000
								CHANNELS 3 Zrotation Yrotation Xrotation
								JOINT RightHandIndex1
								{
									OFFSET -0.750000 0.000000 0.000000
									CHANNELS 3 Zrotation Yrotation Xrotation
									End Site
									{
										OFFSET 0.000000 0.000000 0.000000
									}
								}
							}
						}
					}
				}
			}
		}
	}
}
MOTION
Frames: 9
Frame Time: 0.016667
-11.916420 15.691290 14.545550 17.053694 49.129151 20.484606 -14.878609 12.296967 2.760385 3.775893 -3.944729 -35.083037 3.500052 5.815008 29.678069 0.195040 4.394620 2.986793 -0.012340 0.007140 -0.430830 18.795359 -10.437514 2.597665 -37.420722 4.135840 -18.808712 15.229850 -12.709270 30.800004 -0.168853 -7.008811 1.597527 0.085940 0.295210 -0.012880 -4.263023 -1.370421 -8.629435 13.374067 2.734620 20.474993 -47.537207 -1.048554 20.992914 30.403151 -17.922116 -20.827955 -37.278926 -23.112410 15.551748 2.897850 -36.824850 -4.486310 31.280471 8.578403 15.829055 -39.973779 -0.842474 3.069144 22.152674 -0.046962 -1.566578 -3.680682 3.595418 -0.309050 -0.039120 -0.272320 0.179700 -83.721331 1.299541 16.316704 -71.998685 1.734704 -140.065853 5.459684 -23.713255 -3.549570 -11.106278 1.326452 0.086100 0.164900 0.124520 0.399900 
-11.868170 15.641250 14.386680 18.267823 55.876286 18.881162 -14.941733 11.997422 3.256322 2.379331 -3.725545 -36.553471 5.376456 5.648651 32.733297 0.158157 4.689926 2.833367 0.061600 0.097820 -0.309660 18.456906 -11.196653 3.102801 -37.671125 5.065670 -12.566953 18.752310 -13.573369 28.131687 -0.363016 -7.390020 1.451587 0.136060 0.218410 -0.008230 -3.938255 -0.302884 -8.780979 13.270900 3.076349 22.081116 -37.125057 7.876889 30.621314 27.539884 -13.188787 -26.832839 -30.393329 -18.747351 27.256511 2.447910 -32.966480 -5.984300 15.256759 8.053129 -0.895419 -28.120800 -5.397998 -5.564778 32.410773 -22.981852 -7.717043 -3.732724 3.575228 -0.232580 -0.055970 -0.194340 0.151880 -61.249319 22.613658 19.926277 -71.080195 17.919392 -156.136370 -11.182804 -7.110028 -0.978240 -2.770875 -0.606583 0.080780 0.168510 0.082230 0.332240 
-11.778320 15.610860 14.180530 18.529795 61.528297 20.376848 -15.186846 11.991608 4.218375 -3.568933 -6.301330 -41.039708 14.182823 2.061527 33.965458 0.239391 4.514799 2.860898 -0.009810 -0.044000 -0.269070 18.150774 -10.932688 3.016510 -35.786824 5.533275 -8.694969 19.143151 -12.564118 24.374025 -0.338434 -6.929033 1.611625 -0.015350 0.104800 -0.000550 -4.029733 -0.533310 -8.859484 15.874228 1.833609 23.972345 -27.564920 9.862747 26.186614 19.324039 -10.075089 -27.641364 -25.546872 -17.615306 36.499120 4.278260 -33.630930 -5.942940 1.015786 0.608421 -4.635593 -25.954338 -9.551424 -7.440495 32.349638 -30.047214 -9.014677 -3.471411 3.398584 -0.110330 -0.152110 -0.107300 0.093110 -33.700034 27.859209 36.586497 -62.700631 27.085718 -165.041090 -4.936015 0.732161 -0.085834 -0.766456 -2.939528 0.095780 0.087510 0.086310 0.281610 
-11.671490 15.594030 14.071500 13.438095 58.043160 16.510781 -15.478279 12.531487 4.716302 -2.097335 -6.314182 -43.204877 14.629164 2.280420 36.959290 0.337767 5.069687 2.625825 0.019730 -0.026810 -0.196210 17.696291 -10.837867 3.018770 -34.384239 5.491931 -10.382907 16.751910 -11.222318 24.093394 -0.221155 -6.256016 1.837736 -0.038210 0.018460 -0.012700 -3.351285 -1.743161 -9.602654 12.258317 0.925979 28.066555 -24.414384 11.613127 22.017217 17.064458 -6.504669 -31.070794 -23.767637 -15.358525 42.570909 5.908980 -32.920630 -7.043270 -6.469123 0.004518 -8.954923 -26.604061 -14.992156 -8.091288 27.187510 -37.373952 -9.281632 -3.108372 3.409528 -0.026570 -0.218760 -0.031750 0.073410 -26.205257 26.049635 44.957985 -62.568103 25.670631 -164.450468 -7.097244 2.353285 0.052413 1.854174 -2.518123 0.107200 0.070270 0.051660 0.242160 
-11.623020 15.592380 14.002480 13.024980 58.071850 17.130681 -15.197099 11.369875 4.914184 -0.323287 -7.432789 -45.896978 11.679602 3.913434 41.572959 0.473680 5.869328 2.335062 0.016170 -0.028370 -0.200380 18.085288 -11.080599 3.226769 -35.947543 4.884119 -11.024564 18.162171 -11.457522 22.417899 -0.285163 -6.453301 1.776061 -0.061010 0.005500 -0.019590 -3.879990 0.702339 -10.068556 15.074023 6.235758 28.458022 -15.302484 16.514596 16.526569 10.892559 -9.626663 -25.945738 -19.262693 -14.443812 48.028043 6.430740 -30.914990 -6.757610 -2.413256 -23.303032 6.243319 -30.574801 -16.132563 -2.102328 22.333450 -14.357678 -3.587378 -3.273489 3.527418 -0.011660 -0.234090 -0.017950 0.077650 -13.998628 49.019757 5.156692 -0.255640 27.357267 0.536674 -1.907908 -6.246838 -0.219244 4.880406 -0.899292 0.116550 0.056200 0.041600 0.239830 
-11.520130 15.629270 13.895200 8.210685 53.736727 13.725075 -15.481171 11.842290 5.109062 5.995736 -6.094519 -46.275695 3.852197 7.633700 41.597913 0.481180 6.426016 2.092289 0.044120 0.003980 -0.159860 17.750381 -10.750030 3.131744 -34.484240 4.272998 -12.329211 16.158270 -9.822698 20.070234 -0.209513 -5.745334 2.032532 -0.054450 -0.027320 -0.018520 -3.190730 -0.761882 -10.098941 11.031298 6.220061 29.051562 -11.955717 15.658339 16.373362 11.000201 -9.476983 -27.551224 -20.043553 -12.189521 48.223515 7.015170 -28.386820 -6.351920 -0.632736 -27.820491 7.352577 -30.151080 -21.180615 3.575379 9.882695 -1.818693 -0.474732 -3.423399 3.406459 0.018870 -0.246760 0.016150 0.071690 -14.790738 53.282981 4.150914 -0.500323 26.102064 2.091076 1.248618 -9.990691 -0.344845 5.131326 -0.657287 0.123980 0.042790 0.020640 0.217040 
-11.396690 15.655300 13.804550 3.451239 48.678065 10.219625 -15.594579 11.844109 4.991507 11.180734 -4.625893 -44.978226 -1.147864 10.263771 41.430343 0.499569 7.130701 1.819951 0.115510 0.114850 -0.087670 17.746242 -10.593199 2.786272 -32.392077 3.391970 -13.351970 13.334774 -8.351918 18.096892 -0.157523 -5.138239 2.271264 0.027810 -0.024650 -0.016360 -2.971340 -0.873250 -9.594397 8.470714 7.640560 26.156656 -6.275743 14.285032 18.776268 8.099446 -6.021733 -25.482936 -13.705988 -10.569693 47.638946 5.821440 -22.676320 -5.333290 -0.667596 -30.818209 8.090619 -29.195656 -22.999247 5.159377 3.268654 -3.950894 -0.076166 -3.558335 3.106101 0.023840 -0.199450 0.037480 0.079890 -11.088897 50.400267 6.237586 0.808645 25.173622 4.263364 2.098170 -8.949619 -0.263671 4.280583 -0.372558 0.110180 0.069380 -0.014450 0.179980 
-11.261180 15.661620 13.726790 -0.398625 44.955137 9.125389 -15.715937 11.663443 5.176963 15.597696 -3.799102 -45.136662 -5.641379 12.310048 40.254368 0.527664 7.692978 1.591302 0.120210 0.102180 -0.004220 17.729856 -10.251038 2.589033 -30.216079 2.793379 -12.802606 10.760126 -6.332648 12.210704 -0.120048 -4.393547 2.564943 0.017980 -0.065800 -0.000530 -2.591164 -1.119048 -9.434615 5.422794 9.168590 24.309681 -0.909646 12.716404 17.142394 4.897183 -1.792645 -24.511150 -6.344346 -10.573984 46.838893 4.776170 -17.941130 -3.887380 -6.203237 -30.127678 6.666726 -25.758156 -23.217401 4.354048 -0.183032 -8.814422 0.224950 -3.600088 2.926863 0.075940 -0.178790 0.073410 0.045350 -0.807775 43.195288 13.868871 1.082532 24.666883 1.715991 -2.421914 -6.455996 -0.052213 3.701925 -0.511503 0.087980 0.041410 -0.025940 0.107050 
-11.120920 15.705180 13.648820 -2.257483 40.752137 9.526206 -15.799978 11.208426 5.437240 19.715281 -3.538519 -44.880843 -11.530431 15.018869 39.422395 0.677459 8.569461 1.301209 0.114610 0.108780 0.021530 17.769086 -9.804816 2.592151 -29.377819 2.352316 -11.971766 7.780972 -4.529659 5.379835 -0.133682 -4.023894 2.740770 0.024840 -0.054400 0.004420 -2.275443 -1.090875 -9.428766 1.950340 10.613575 21.820659 2.130957 12.100912 16.526450 3.338735 0.842175 -23.680051 -1.372810 -11.175405 46.182660 4.134620 -15.395810 -2.453140 -6.190544 -31.470601 5.715926 -24.387541 -27.014127 4.860460 -2.147838 -11.846672 0.620003 -3.644548 2.844517 0.060260 -0.135790 0.071870 0.037510 1.710874 40.443548 15.681866 5.497962 20.750373 2.176038 -2.028362 -4.435777 -0.010230 3.375403 -0.636988 0.078140 0.038650 -0.034830 0.087510 
